<svg width="1021" height="1597" viewBox="0 0 1021 1597" fill="none" xmlns="http://www.w3.org/2000/svg">
<path d="M619.09 4.9412C619.09 4.9412 621.973 72.0593 707.378 97.7536C707.378 97.7536 710.591 122.954 662.823 117.601L624.938 145.848C624.938 145.848 525.201 182.66 514.659 293.261C514.659 293.261 242.135 958.925 850.271 1308.43C850.271 1308.43 966.232 1403.96 981.633 1439.29C982.951 1442.42 950.995 1588.35 950.995 1588.35C950.995 1588.35 840.47 1560.19 811.892 1569.49C783.313 1578.8 569.345 1559.45 496.458 1503.12C423.571 1446.7 83.7589 1314.44 13.1775 833.253C-57.4862 352.061 308.269 137.448 429.006 170.554L582.276 56.4945C582.276 56.4945 576.181 -3.54122 619.09 4.9412Z" fill="#F6C90A" stroke="#1B1311" stroke-miterlimit="10"/>
<path d="M623.125 1250.87C623.125 1250.87 688.848 1332.65 939.547 1460.13" stroke="#1B1311" stroke-miterlimit="10"/>
<path d="M393.509 314.014C393.509 314.014 160.27 701.57 494.069 1139.77" stroke="#1B1311" stroke-miterlimit="10"/>
<path d="M443.583 201.272C443.583 201.272 473.15 233.308 471.75 257.602" stroke="#1B1311" stroke-miterlimit="10"/>
<path d="M1008.07 1458.4C1008.07 1458.4 975.538 1430.07 943.912 1463.83C943.912 1463.83 925.052 1522.8 936.088 1565.21C947.124 1607.62 976.197 1588.44 976.197 1588.44C976.197 1588.44 1008.23 1565.62 1010.95 1535.89C1013.67 1506.16 1024.38 1472.65 1008.15 1458.32L1008.07 1458.4Z" fill="#A34023" stroke="#1B1311" stroke-miterlimit="10"/>
<path d="M110.113 885.712C110.113 885.712 162.658 819.665 242.217 861.995" stroke="#1B1311" stroke-miterlimit="10"/>
<path d="M234.558 854.83C234.558 854.83 286.526 790.759 237.523 708.323C188.519 625.887 131.527 654.134 131.527 654.134C131.527 654.134 87.4651 680.076 105.584 769.841C105.584 769.841 120.82 831.277 141.163 860.677C141.163 860.677 180.695 834.736 234.64 854.747L234.558 854.83Z" fill="white" stroke="#1B1311" stroke-miterlimit="10"/>
<path d="M211.168 844.947C211.168 844.947 229.781 794.135 225.251 771.57L189.096 785.653L199.226 735.417C199.226 735.417 168.176 706.099 141.657 728.088C115.137 750.076 110.031 786.312 110.031 786.312L137.127 860.759L211.085 844.947H211.168Z" fill="#1B1311" stroke="#1B1311" stroke-miterlimit="10"/>
<path d="M320.705 845.524C320.705 845.524 347.224 770.994 441.525 815.629" stroke="#1B1311" stroke-miterlimit="10"/>
<path d="M333.141 817.853C333.141 817.853 268.242 746.123 303.821 636.099C303.821 636.099 336.023 581.91 381.156 623.663C426.288 665.417 418.629 806.653 418.629 806.653C418.629 806.653 380.003 781.782 333.141 817.935V817.853Z" fill="white" stroke="#1B1311" stroke-miterlimit="10"/>
<path d="M391.286 794.712C391.286 794.712 403.145 738.794 396.392 732.041L366.496 748.429L381.156 700.417C381.156 700.417 331.082 650.181 294.35 723.064L308.515 776.759L333.141 817.853C333.141 817.853 382.226 792.982 391.286 794.712Z" fill="#1B1311" stroke="#1B1311" stroke-miterlimit="10"/>
<path d="M370.943 880.524C370.943 880.524 410.722 835.888 398.451 810.524C386.18 785.159 337.67 801.794 321.61 843.383" stroke="#1B1311" stroke-miterlimit="10"/>
<path d="M252.759 952.584L262.559 940.725L272.278 928.866" stroke="#1B1311" stroke-miterlimit="10"/>
<path d="M418.382 893.701C418.382 893.701 374.238 954.148 262.477 940.725" stroke="#1B1311" stroke-miterlimit="10"/>
<path d="M262.56 945.748C262.56 945.748 280.184 1035.1 350.601 1039.3C421.018 1043.5 439.96 995.16 439.96 995.16C439.96 995.16 398.204 954.313 406.44 905.889C406.44 905.889 398.945 937.842 262.56 945.748Z" fill="#1B1311" stroke="#1B1311" stroke-miterlimit="10"/>
<path d="M272.278 947.313C272.278 947.313 283.314 980.995 321.693 978.36C360.072 975.725 398.945 967.819 404.216 947.313V914.701C404.216 914.701 393.18 938.913 272.278 947.313Z" fill="white" stroke="#1B1311" stroke-miterlimit="10"/>
<path d="M285.949 985.69C285.949 985.69 301.68 1031.97 348.542 1029.83C395.404 1027.69 428.43 1014.1 429.006 1001.42C429.583 988.737 388.568 978.442 388.568 978.442L286.032 985.69H285.949Z" stroke="#1B1311" stroke-miterlimit="10"/>
</svg>
