<svg width="1781" height="2789" viewBox="0 0 1781 2789" fill="none" xmlns="http://www.w3.org/2000/svg">
<path d="M1080.48 5.4968C1080.48 5.4968 1085.5 122.955 1235.06 167.982C1235.06 167.982 1240.72 212.119 1157.04 202.742L1090.75 252.215C1090.75 252.215 916.128 316.643 897.695 510.251C897.695 510.251 420.633 1675.53 1485.27 2287.32C1485.27 2287.32 1688.27 2454.57 1715.27 2516.41C1717.62 2521.91 1661.67 2777.36 1661.67 2777.36C1661.67 2777.36 1468.21 2728.05 1418.17 2744.38C1368.13 2760.71 993.577 2726.83 865.923 2628.21C738.351 2529.43 143.418 2297.91 19.8878 1455.57C-103.966 613.158 536.402 237.422 747.729 295.383L1016.05 95.7123C1016.05 95.7123 1005.38 -9.37743 1080.48 5.4968Z" fill="#F6C90A" stroke="#1B1311" stroke-miterlimit="10"/>
<path d="M1087.6 2186.51C1087.6 2186.51 1202.64 2329.68 1641.54 2552.79" stroke="#1B1311" stroke-miterlimit="10"/>
<path d="M685.56 546.547C685.56 546.547 277.215 1224.94 861.639 1992.02" stroke="#1B1311" stroke-miterlimit="10"/>
<path d="M773.276 349.141C773.276 349.141 825.016 405.242 822.591 447.763" stroke="#1B1311" stroke-miterlimit="10"/>
<path d="M1761.44 2549.8C1761.44 2549.8 1704.52 2500.25 1649.14 2559.34C1649.14 2559.34 1616.16 2662.57 1635.48 2736.78C1654.8 2810.99 1705.73 2777.44 1705.73 2777.44C1705.73 2777.44 1761.84 2737.51 1766.61 2685.45C1771.38 2633.39 1790.14 2574.78 1761.68 2549.64L1761.52 2549.8H1761.44Z" fill="#A34023" stroke="#1B1311" stroke-miterlimit="10"/>
<path d="M646.108 1538.19C646.108 1538.19 715.715 1460.02 694.291 1415.64C672.786 1371.26 587.9 1400.36 559.766 1473.2" stroke="#1B1311" stroke-miterlimit="10"/>
<path d="M439.227 1664.38L456.366 1643.6L473.343 1622.83" stroke="#1B1311" stroke-miterlimit="10"/>
<path d="M729.135 1561.23C729.135 1561.23 651.848 1667.05 456.204 1643.52" stroke="#1B1311" stroke-miterlimit="10"/>
<path d="M577.383 1298.54L605.451 1326.6L776.319 1155.75L748.25 1127.68L577.383 1298.54Z" fill="black"/>
<path d="M745.244 1326.57L773.312 1298.51L602.445 1127.65L574.376 1155.72L745.244 1326.57Z" fill="black"/>
<path d="M225.865 1326.08L253.933 1354.14L424.801 1183.29L396.733 1155.22L225.865 1326.08Z" fill="black"/>
<path d="M393.788 1354.15L421.856 1326.08L250.988 1155.23L222.92 1183.29L393.788 1354.15Z" fill="black"/>
<path d="M665.268 1629.94C628.726 1625.9 617.812 1643.12 574.399 1652.74C506.328 1667.85 458.63 1642.23 452.405 1656.7C448.12 1666.72 468.735 1684.1 486.44 1699.14C507.136 1716.68 546.992 1749.5 608.677 1756.86C652.252 1762.11 682.568 1751.77 690.249 1748.94C709.247 1741.98 730.59 1734.22 738.108 1714.09C747.486 1688.87 728.165 1663.17 725.254 1659.37C706.256 1634.87 676.424 1631.15 665.187 1629.94H665.268Z" fill="#FF0127" stroke="black" stroke-width="2" stroke-miterlimit="10"/>
<path d="M575.854 1653.06C577.228 1657.1 579.815 1663 584.909 1668.82C593.316 1678.53 603.422 1682.16 608.03 1683.46" stroke="black" stroke-width="2" stroke-miterlimit="10"/>
</svg>
