<svg width="1580" height="1669" viewBox="0 0 1580 1669" fill="none" xmlns="http://www.w3.org/2000/svg">
<path d="M978.72 769.375L956.293 1046.31L1094.81 891.353C1098.52 901.301 1251.8 965.088 1251.8 965.088C1251.8 965.088 1150.47 1054.69 1088.32 1234.86C1026.18 1415.06 1045.54 1616.73 1045.54 1616.73C1045.54 1616.73 950.303 1665.86 822.374 1667.15C694.446 1668.47 606.414 1616.73 606.414 1616.73C614.793 1387.25 594.506 1360.33 556.319 1237.82C518.133 1115.27 377.975 965.053 377.975 965.053C377.975 965.053 317.469 801.144 589.478 860.689L713.557 1021L763.651 779.787C763.651 779.787 912.616 591.561 978.791 769.34H978.72V769.375Z" fill="#98C44B" stroke="#1B1311" stroke-miterlimit="10"/>
<path d="M128.107 592.88C128.107 592.88 -5.24102 713.61 2.06818 848.887C9.37739 984.164 167.434 1048.77 253.505 1032.69C339.575 1016.61 407.782 953.928 393.093 900.873C393.093 900.873 449.57 923.193 491.036 909.644C532.502 896.095 596.467 885.648 644.173 781.284C644.173 781.284 663.533 739.817 637.291 689.471C637.291 689.471 736.304 785.491 823.587 800.324C910.869 815.192 987.063 777.398 999.293 754.328C999.293 754.328 1036.48 848.459 1079.59 881.12C1122.69 913.816 1332.24 1011.94 1400.41 990.332C1468.58 968.725 1516.75 962.414 1552.97 866.75C1589.16 771.087 1578.93 737.713 1567.84 714.751C1556.75 691.753 1528.02 634.668 1528.02 634.668C1528.02 634.668 1578 535.938 1566.27 438.064C1554.54 340.154 1460.27 221.35 1291.95 253.511C1291.95 253.511 1291.95 132.532 1170.08 46.5661C1048.21 -39.435 937.361 5.34831 852.895 121.371C852.895 121.371 754.595 -28.0253 578.069 73.8069C401.543 175.639 456.629 242.814 456.629 242.814C456.629 242.814 219.668 176.459 150.677 368.464C81.685 560.469 128.179 592.738 128.179 592.738L128.107 592.809V592.88Z" fill="#59A832" stroke="#1B1311" stroke-miterlimit="10"/>
<path d="M787.29 1319.54C787.29 1319.54 743.185 1312.98 742.936 1343.11C742.686 1373.24 764.614 1373.59 764.614 1373.59" stroke="#1D1D1B" stroke-miterlimit="10"/>
<path d="M922.065 1337.05C922.065 1337.05 914.506 1415.95 1011.74 1366.85" stroke="#1D1D1B" stroke-miterlimit="10"/>
<path d="M939.607 1372.92C804.69 1473.11 645.242 1393.28 645.242 1393.28C661.322 1386.54 667.099 1352.52 667.099 1352.52" stroke="#1D1D1B" stroke-miterlimit="10"/>
<path d="M277.393 574.233C277.393 574.233 405.251 647.647 516.422 528.094" stroke="#1B1311" stroke-miterlimit="10"/>
<path d="M853.145 362.545C853.145 362.545 1017.44 482.027 1151.61 389.822" stroke="#1B1311" stroke-miterlimit="10"/>
<path d="M1151.65 758.786C1151.65 758.786 1310.95 838.44 1415.81 758.786" stroke="#1B1311" stroke-miterlimit="10"/>
<path d="M633.731 1230.27L652.816 1249.36L769.067 1133.11L749.982 1114.02L633.731 1230.27Z" fill="black"/>
<path d="M747.945 1249.36L767.03 1230.28L650.779 1114.02L631.694 1133.11L747.945 1249.36Z" fill="black"/>
<path d="M878.926 1230.27L898.011 1249.36L1014.26 1133.1L995.177 1114.02L878.926 1230.27Z" fill="black"/>
<path d="M993.103 1249.37L1012.19 1230.28L895.938 1114.03L876.852 1133.11L993.103 1249.37Z" fill="black"/>
<path d="M809.753 1425.62C829.648 1412.89 840.808 1419.66 868.511 1412.89C911.939 1402.23 932.119 1373.88 939.785 1380.48C945.062 1385 938.216 1400.87 932.298 1414.56C925.381 1430.54 911.796 1460.74 878.423 1482.56C854.856 1497.96 834.497 1500.63 829.22 1501.21C816.313 1502.63 801.837 1504.24 791.818 1494.79C779.268 1482.95 783.047 1462.66 783.653 1459.63C787.611 1440.13 803.727 1429.5 809.788 1425.58L809.753 1425.62Z" fill="#FF0127" stroke="black" stroke-width="2" stroke-miterlimit="10"/>
<path d="M867.727 1413.46C868.083 1416.17 868.262 1420.3 867.014 1425.12C864.946 1433.07 860.132 1438.06 857.886 1440.13" stroke="black" stroke-width="2" stroke-miterlimit="10"/>
</svg>
