<svg width="1284" height="1356" viewBox="0 0 1284 1356" fill="none" xmlns="http://www.w3.org/2000/svg">
<path d="M795.006 625.16L776.841 849.563L889.092 723.985C892.086 732.038 1016.31 783.746 1016.31 783.746C1016.31 783.746 934.205 856.351 883.835 1002.36C833.466 1148.37 849.169 1311.81 849.169 1311.81C849.169 1311.81 771.984 1351.61 668.316 1352.67C564.649 1353.74 493.319 1311.81 493.319 1311.81C500.106 1125.87 483.671 1104.05 452.73 1004.76C421.79 905.464 308.208 783.746 308.208 783.746C308.208 783.746 259.169 650.915 479.612 699.163L580.152 829.066L620.741 633.612C620.741 633.612 741.442 481.082 795.073 625.16H795.006Z" fill="#98C44B" stroke="#1B1311" stroke-miterlimit="10"/>
<path d="M105.73 482.147C105.73 482.147 -2.32875 579.973 3.59321 689.579C9.51516 799.185 137.602 851.559 207.335 838.516C277.068 825.472 332.362 774.695 320.451 731.705C320.451 731.705 366.23 749.806 399.832 738.826C433.434 727.845 485.268 719.393 523.927 634.81C523.927 634.81 539.63 601.203 518.338 560.408C518.338 560.408 598.583 638.204 669.314 650.249C740.045 662.294 801.793 631.682 811.707 612.982C811.707 612.982 841.849 689.247 876.782 715.733C911.715 742.22 1081.52 821.746 1136.75 804.243C1191.98 786.741 1231.04 781.617 1260.38 704.087C1289.72 626.558 1281.41 599.539 1272.42 580.905C1263.44 562.271 1240.15 516.02 1240.15 516.02C1240.15 516.02 1280.67 436.028 1271.16 356.702C1261.64 277.376 1185.26 181.079 1048.85 207.167C1048.85 207.167 1048.85 109.14 950.108 39.4634C851.365 -30.2133 761.537 6.05586 693.069 100.089C693.069 100.089 613.422 -20.963 470.363 61.5576C327.305 144.078 371.952 198.515 371.952 198.515C371.952 198.515 179.921 144.744 124.029 300.335C68.1359 455.926 105.797 482.08 105.797 482.08L105.73 482.147Z" fill="#59A832" stroke="#1B1311" stroke-miterlimit="10"/>
<path d="M557.928 1047.21C557.928 1047.21 498.509 949.187 583.612 875.783C583.612 875.783 622.404 853.356 639.039 907.194C655.674 961.032 639.904 1031.51 604.971 1051.07C604.971 1051.07 573.299 1041.96 557.928 1047.21Z" fill="white" stroke="#1D1D1B" stroke-miterlimit="10"/>
<path d="M546.949 1054.53C546.949 1054.53 585.009 1031.51 613.422 1058.86" stroke="#1D1D1B" stroke-miterlimit="10"/>
<path d="M717.888 1066.25C717.888 1066.25 659.866 1017.4 721.946 909.257C721.946 909.257 744.969 878.578 773.98 883.17C802.991 887.762 819.426 932.217 819.426 932.217C819.426 932.217 832.468 998.3 796.869 1056C796.869 1056 754.684 1032.71 717.888 1066.25Z" fill="white" stroke="#1D1D1B" stroke-miterlimit="10"/>
<path d="M708.439 1076.1C708.439 1076.1 767.792 1018.33 815.7 1069.57" stroke="#1D1D1B" stroke-miterlimit="10"/>
<path d="M582.547 1045.55C582.547 1045.55 552.472 1029.71 561.388 979L589.734 988.983L573.698 950.85C573.698 950.85 599.315 919.772 622.404 938.539C645.493 957.306 643.43 980.531 643.43 980.531" fill="#1B1311"/>
<path d="M582.547 1045.55C582.547 1045.55 552.472 1029.71 561.388 979L589.734 988.983L573.698 950.85C573.698 950.85 599.315 919.772 622.404 938.539C645.493 957.306 643.43 980.531 643.43 980.531" stroke="#1D1D1B" stroke-miterlimit="10"/>
<path d="M740.777 1052.07C740.777 1052.07 712.897 1028.65 724.408 986.454L753.22 998.1L739.779 958.437C739.779 958.437 783.229 909.191 819.293 993.641" fill="#1B1311"/>
<path d="M740.777 1052.07C740.777 1052.07 712.897 1028.65 724.408 986.454L753.22 998.1L739.779 958.437C739.779 958.437 783.229 909.191 819.293 993.641" stroke="#1D1D1B" stroke-miterlimit="10"/>
<path d="M639.904 1070.97C639.904 1070.97 604.173 1065.65 603.973 1090.07C603.773 1114.49 621.539 1114.76 621.539 1114.76" stroke="#1D1D1B" stroke-miterlimit="10"/>
<path d="M749.094 1085.15C749.094 1085.15 742.973 1149.1 821.755 1109.3" stroke="#1D1D1B" stroke-miterlimit="10"/>
<path d="M544.288 1276.41C544.288 1276.41 590.599 1323.72 669.314 1292.91C748.029 1262.03 775.643 1183.44 779.635 1122.35" stroke="#1D1D1B" stroke-miterlimit="10"/>
<path d="M760.539 1116.22C760.539 1116.22 773.714 1145.11 721.148 1183.04C668.649 1220.97 566.445 1195.75 566.445 1195.75L565.713 1145.31C565.713 1145.31 681.957 1180.04 760.539 1116.16V1116.22Z" fill="white" stroke="#1D1D1B" stroke-miterlimit="10"/>
<path d="M643.231 1243.2C643.231 1243.2 614.02 1241.6 593.659 1264.03C573.299 1286.46 584.61 1287.79 584.61 1287.79C584.61 1287.79 603.906 1301.43 648.288 1289.85C692.603 1278.27 737.184 1230.76 744.57 1208.86C744.57 1208.86 697.726 1204.6 675.502 1227.56C675.502 1227.56 659.733 1232.55 648.155 1261.57C636.577 1290.58 634.248 1256.84 638.573 1250.99C642.898 1245.13 643.231 1243.27 643.231 1243.27V1243.2Z" fill="#DE2128" stroke="#1D1D1B" stroke-miterlimit="10"/>
<path d="M763.334 1114.23C654.01 1195.42 524.792 1130.73 524.792 1130.73C537.834 1125.27 542.491 1097.72 542.491 1097.72" stroke="#1D1D1B" stroke-miterlimit="10"/>
<path d="M226.698 467.04C226.698 467.04 330.299 526.535 420.392 429.64" stroke="#1B1311" stroke-miterlimit="10"/>
<path d="M693.268 295.477C693.268 295.477 826.412 392.306 935.137 317.571" stroke="#1B1311" stroke-miterlimit="10"/>
<path d="M935.137 616.575C935.137 616.575 1064.22 681.128 1149.19 616.575" stroke="#1B1311" stroke-miterlimit="10"/>
</svg>
