<svg width="1460" height="1577" viewBox="0 0 1460 1577" fill="none" xmlns="http://www.w3.org/2000/svg">
<g clip-path="url(#clip0_359_228)">
<path d="M874.55 838.208C880.97 858.091 858.19 871.14 827.333 922.712C783.637 995.204 773.282 1061.69 763.135 1125.48C740.976 1265.49 756.301 1378.99 756.301 1378.99C762.099 1421.45 771.004 1459.36 749.467 1497.26C726.894 1537.23 684.44 1552.35 668.287 1558.15C621.277 1574.93 559.356 1574.51 512.76 1544.69C447.94 1503.06 438.621 1421.25 431.58 1358.7C419.362 1249.96 456.017 1153.24 529.535 959.994C555.835 890.816 567.226 869.069 590.42 848.564C682.162 766.338 858.19 788.5 874.343 838.415L874.55 838.208Z" fill="#E5B316" stroke="black" stroke-width="0.75" stroke-miterlimit="10"/>
<path d="M1391.66 821.432C1414.44 799.685 1467.66 748.941 1459.17 682.87C1448.82 601.68 1353.55 563.57 1347.76 561.291C1347.76 561.291 1239.65 475.337 1138.18 348.374C1030.28 213.125 1067.15 174.187 979.339 98.1745C872.065 5.38546 744.082 0.621744 722.544 0.000388316C688.374 -0.828085 580.893 1.03598 482.525 71.042C390.161 136.699 421.847 179.779 300.076 311.092C284.752 327.455 225.73 382.962 107.481 493.564C31.0636 565.02 14.7033 579.725 6.00548 608.514C-21.7449 700.061 48.8736 818.533 137.716 875.49C214.961 924.991 279.781 910.907 445.248 905.937C718.817 897.652 721.302 930.376 1043.33 916.085C1214.6 908.422 1314.41 894.752 1391.45 821.432H1391.66Z" fill="#B48009"/>
<path d="M573.645 446.755C624.313 446.755 665.387 390.838 665.387 321.862C665.387 252.886 624.313 196.97 573.645 196.97C522.978 196.97 481.903 252.886 481.903 321.862C481.903 390.838 522.978 446.755 573.645 446.755Z" fill="#F2F2F2" stroke="black" stroke-miterlimit="10"/>
<path d="M605.744 408.023C639.027 408.023 666.008 370.653 666.008 324.555C666.008 278.456 639.027 241.086 605.744 241.086C572.462 241.086 545.48 278.456 545.48 324.555C545.48 370.653 572.462 408.023 605.744 408.023Z" fill="black"/>
<path d="M554.178 344.438C559.149 344.024 567.639 342.781 576.337 337.396C581.515 334.082 590.212 328.697 590.627 321.448C591.041 313.163 580.686 303.636 564.533 300.115L551.072 298.458L547.137 341.953L554.178 344.231V344.438Z" fill="#F2F2F2"/>
<path d="M551.072 298.458L548.38 298.251L547.137 305.293L545.688 314.406L545.48 323.519L545.895 334.082L546.723 342.16H548.587L551.072 298.458Z" fill="#F2F2F2"/>
<path d="M833.96 446.755C884.628 446.755 925.702 390.838 925.702 321.862C925.702 252.886 884.628 196.97 833.96 196.97C783.292 196.97 742.218 252.886 742.218 321.862C742.218 390.838 783.292 446.755 833.96 446.755Z" fill="#F2F2F2" stroke="black" stroke-miterlimit="10"/>
<path d="M866.059 408.023C899.342 408.023 926.323 370.653 926.323 324.555C926.323 278.456 899.342 241.086 866.059 241.086C832.776 241.086 805.795 278.456 805.795 324.555C805.795 370.653 832.776 408.023 866.059 408.023Z" fill="black"/>
<path d="M814.493 344.438C819.463 344.024 827.954 342.781 836.652 337.396C841.829 334.082 850.527 328.697 850.941 321.448C851.356 313.163 841.001 303.636 824.848 300.115L811.387 298.458L807.452 341.953L814.493 344.231V344.438Z" fill="#F2F2F2"/>
<path d="M811.387 298.458L808.902 298.251L807.452 305.293L806.21 314.406L806.002 323.519L806.21 334.082L807.038 342.16H808.902L811.387 298.458Z" fill="#F2F2F2"/>
<path d="M572.196 645.174C579.03 652.009 588.97 661.329 601.396 671.064C618.792 684.941 643.021 703.995 675.121 715.594C692.723 722.015 730.621 735.685 775.767 722.843C820.292 710.209 845.972 679.348 855.291 666.921" stroke="black" stroke-miterlimit="10"/>
<path d="M866.681 607.064C862.746 609.136 856.119 613.278 851.977 620.941C842.658 638.132 849.906 666.3 869.787 673.757C887.39 680.177 904.372 666.507 905.407 665.679" stroke="black" stroke-miterlimit="10"/>
<path d="M519.594 645.174C522.701 647.245 528.085 650.145 534.919 651.595C537.404 652.009 552.729 655.116 566.604 646.002C579.237 637.511 586.071 621.77 584.414 605.407" stroke="black" stroke-miterlimit="10"/>
</g>
<defs>
<clipPath id="clip0_359_228">
<rect width="1460" height="1577" fill="white"/>
</clipPath>
</defs>
</svg>
