<svg width="1460" height="1577" viewBox="0 0 1460 1577" fill="none" xmlns="http://www.w3.org/2000/svg">
<g clip-path="url(#clip0_359_215)">
<path d="M874.55 838.208C880.97 858.091 858.19 871.14 827.333 922.712C783.637 995.204 773.282 1061.69 763.135 1125.48C740.976 1265.49 756.301 1378.99 756.301 1378.99C762.099 1421.45 771.004 1459.36 749.467 1497.26C726.894 1537.23 684.44 1552.35 668.287 1558.15C621.277 1574.93 559.356 1574.51 512.76 1544.69C447.94 1503.06 438.621 1421.25 431.58 1358.7C419.362 1249.96 456.017 1153.24 529.535 959.994C555.835 890.816 567.226 869.069 590.42 848.564C682.162 766.338 858.19 788.5 874.343 838.415L874.55 838.208Z" fill="#E5B316" stroke="black" stroke-width="0.75" stroke-miterlimit="10"/>
<path d="M1391.66 821.432C1414.44 799.685 1467.66 748.941 1459.17 682.87C1448.82 601.68 1353.55 563.57 1347.76 561.291C1347.76 561.291 1239.65 475.337 1138.18 348.374C1030.28 213.125 1067.15 174.187 979.339 98.1745C872.065 5.38546 744.082 0.621744 722.544 0.000388316C688.374 -0.828085 580.893 1.03598 482.525 71.042C390.161 136.699 421.847 179.779 300.076 311.092C284.752 327.455 225.73 382.962 107.481 493.564C31.0636 565.02 14.7033 579.725 6.00548 608.514C-21.7449 700.061 48.8736 818.533 137.716 875.49C214.961 924.991 279.781 910.907 445.248 905.937C718.817 897.652 721.302 930.376 1043.33 916.085C1214.6 908.422 1314.41 894.752 1391.45 821.432H1391.66Z" fill="#B48009"/>
<path d="M1134.87 679.348C1130.93 627.569 1079.16 595.051 1057.21 581.381C1032.35 565.847 982.238 540.372 824.02 544.307C678.641 547.828 605.123 550.728 570.539 601.679C547.966 635.025 540.096 688.461 563.705 719.943C595.804 762.403 660.21 730.921 796.891 736.927C972.712 744.591 1055.76 805.069 1107.74 753.911C1127.82 734.028 1136.73 704.202 1134.87 679.555V679.348Z" fill="#35190E"/>
<path d="M410.042 251.234C435.722 253.098 453.946 265.94 453.946 265.94C479.004 283.545 486.667 311.713 490.394 326.211C495.986 347.544 497.228 373.02 486.667 415.686C468.65 488.799 433.237 539.336 426.403 549.071C400.102 586.145 307.739 715.594 212.684 697.16C183.484 691.361 152.834 671.478 139.58 642.274C124.255 608.307 136.888 571.025 159.668 523.595C218.482 401.188 328.241 245.435 410.042 251.441V251.234Z" fill="#EFE1C7"/>
<path d="M1016.82 184.75C1014.96 201.32 1001.71 213.332 1001.71 213.332C983.481 229.695 954.281 234.666 938.956 237.151C916.797 240.672 890.29 241.708 845.972 234.873C769.969 223.067 717.368 200.077 707.427 195.727C668.908 178.537 534.298 118.679 553.558 56.7509C559.563 37.696 580.272 17.8126 610.508 9.32079C645.714 -0.620899 684.44 7.45672 733.935 22.3693C861.09 60.6862 1023.04 131.935 1016.82 184.957V184.75Z" fill="#EFE1C7"/>
<path d="M729.793 292.865L602.431 219.131" stroke="black" stroke-width="0.75" stroke-miterlimit="10"/>
<path d="M926.323 302.393L1038.36 247.714" stroke="black" stroke-miterlimit="10"/>
<path d="M1037.74 525.045C1078.8 525.045 1112.09 486.377 1112.09 438.677C1112.09 390.977 1078.8 352.309 1037.74 352.309C996.679 352.309 963.393 390.977 963.393 438.677C963.393 486.377 996.679 525.045 1037.74 525.045Z" fill="white" stroke="black" stroke-miterlimit="10"/>
<path d="M670.772 502.469C711.832 502.469 745.118 463.801 745.118 416.101C745.118 368.401 711.832 329.732 670.772 329.732C629.712 329.732 596.426 368.401 596.426 416.101C596.426 463.801 629.712 502.469 670.772 502.469Z" fill="white" stroke="black" stroke-miterlimit="10"/>
<path d="M746.568 584.695L750.088 693.225L659.589 615.763L746.568 584.695Z" fill="#EFE1C7"/>
<path d="M1075.22 646.623L1028.83 709.795L990.729 610.999L1075.22 646.623Z" fill="#EFE1C7"/>
</g>
<defs>
<clipPath id="clip0_359_215">
<rect width="1460" height="1577" fill="white"/>
</clipPath>
</defs>
</svg>
