<svg width="685" height="915" viewBox="0 0 685 915" fill="none" xmlns="http://www.w3.org/2000/svg">
<g clip-path="url(#clip0_275_148)">
<path d="M242.63 160.82C248.18 161.64 271.41 164.74 303.65 158.2C325.11 153.84 324.56 150.48 344.33 145.73C355.02 143.16 383.25 136.66 415.85 142.45C424.65 144.01 460.09 151.15 488.68 177.22C533.04 217.68 533.61 278.86 533.95 315.66C534.69 395.44 499.94 451.88 480.8 482.97C460.97 515.18 437.17 552.73 393.54 568.92C375.08 575.77 353.79 578.53 346.96 579.42C316.78 583.33 302.33 579.81 270.19 578.76C206.87 576.69 208.03 588.57 177.02 582.04C137.87 573.79 111.95 549.79 94.35 533.49C60.44 502.08 45.02 468.81 33.33 443.6C14.46 402.9 8.06 368.41 5.77 353.71C0.460001 319.64 -4.27 289.3 6.43 252.67C10.22 239.68 27.28 181.25 81.88 154.91C87.09 152.4 122.61 135.79 161.93 142.44C171.57 144.07 191.51 148.81 214.42 154.25C237.56 159.75 237 159.98 242.63 160.81V160.82Z" fill="#C11612"/>
<path d="M179.65 169.8C184.2 170.45 190.17 171.47 197.41 173.86C204.25 176.12 215.47 179.83 224.81 188.57C234.97 198.08 231.89 203.25 240.03 210.89C252.15 222.27 270.29 221.42 278.59 221.04C298.55 220.11 301.12 212.16 329.83 204.81C348.45 200.04 358.6 197.44 370.92 200.24C397.41 206.27 411.67 232.23 415.56 239.3C429.24 264.2 427.4 287.84 425.2 315.91C423.79 333.9 420.7 368.5 398.82 405.2C389.27 421.22 378.96 438.52 357.73 451.87C327.72 470.75 295.73 469.27 284.68 468.61C255.87 466.9 255.61 457.52 231.41 457.96C202.31 458.49 194.29 472.21 161.4 479.27C143.53 483.1 120.03 487.73 97.48 479.27C63.27 466.44 48.97 429.79 36.6 398.1C27.67 375.23 14.89 331.48 24.42 278.88C28.61 255.78 33 231.53 52.83 208.36C55.07 205.74 81.72 175.46 124.36 168.28C144.85 164.83 163.97 167.56 179.66 169.8H179.65Z" fill="#D52A22"/>
<path d="M56.94 345.35C63.4 347.85 71.82 347.59 78.12 343.58C85.16 339.11 87.23 331.48 89.3 325.34C90.35 322.25 102.89 286.18 125.2 271.2C135.12 264.54 144.82 263.49 155.21 262.37C180.71 259.62 194.24 268.19 220.53 275.32C240.3 280.68 290.09 294.18 325.86 271.79C335.14 265.98 347.49 255.25 345.28 248.25C342.35 238.97 314.79 239.28 302.32 239.42C282.48 239.64 280.94 242.86 267.6 242.95C246.05 243.1 230.07 234.83 201.1 219.41C166.8 201.15 171.49 197.47 155.2 192.34C150.95 191 108.63 178.39 76.35 202.93C61.76 214.02 56.05 227.51 47.52 247.65C40.88 263.33 30.26 289.33 38.1 317.68C40.29 325.61 44.41 340.48 56.93 345.34L56.94 345.35Z" fill="#F84F40"/>
<path d="M357.67 251.73C355.85 249.41 356.3 246.36 356.42 245.71C357.61 238.87 367.21 236.54 368.71 236.18C371.79 235.44 376.11 234.39 378.99 236.93C382 239.59 381.96 244.87 380.24 248.21C376.35 255.78 361.92 257.14 357.67 251.72V251.73Z" fill="#F84F40"/>
<path d="M290.38 175.31C290.67 168.53 290.8 159.88 290.38 149.86C289.63 132.07 287.5 118.87 287.04 116.06C286.36 111.92 283.68 96.3 277.44 76.84C273.39 64.2 271.36 57.88 268.26 50.97C264.18 41.88 261.34 37.75 261.17 30.94C261.01 24.45 266.22 15.2 267.85 11.75C269.97 7.23 271.11 5.63 270.35 3.82C268.11 -1.57 252.92 0.219999 250.74 0.479999C245.4 1.11 236.75 2.98 226.96 9.24L221.95 15.08C220.38 17.3 218.65 20.56 219.03 24.26C219.66 30.41 225.75 34.3 228.63 36.36C236.78 42.2 241.57 50.54 251.16 67.24C256.09 75.82 258.34 86.31 262.84 107.29C268.36 133.01 271.12 145.87 268.68 159.44C266.02 174.22 264.7 181.61 261.17 186.98C260.54 187.93 258.9 190.3 258.67 193.66C258.35 198.28 260.84 203 264.09 205.76C271.85 212.33 284.02 207.77 288.29 206.18C293.91 204.08 300.95 201.44 301.64 195.75C302.2 191.09 298.32 185.86 292.04 182.82L290.37 175.31H290.38Z" fill="#663B0D"/>
<path d="M155.66 436.04C198.434 436.04 233.11 388.837 233.11 330.61C233.11 272.383 198.434 225.18 155.66 225.18C112.886 225.18 78.21 272.383 78.21 330.61C78.21 388.837 112.886 436.04 155.66 436.04Z" fill="#F2F2F2" stroke="black" stroke-width="2" stroke-miterlimit="10"/>
<path d="M182.78 403.17C210.919 403.17 233.73 371.664 233.73 332.8C233.73 293.936 210.919 262.43 182.78 262.43C154.641 262.43 131.83 293.936 131.83 332.8C131.83 371.664 154.641 403.17 182.78 403.17Z" fill="black"/>
<path d="M139.21 349.63C143.34 349.32 150.57 348.21 157.94 343.61C162.37 340.84 169.63 336.31 169.98 330.23C170.38 323.25 161.58 315.19 147.91 312.17L136.54 310.83L133.2 347.61L139.22 349.62L139.21 349.63Z" fill="#F2F2F2"/>
<path d="M136.54 310.84L134.39 310.59L133.28 316.47L132.11 324.19L131.95 331.91L132.17 340.79L132.97 347.62H134.42L136.54 310.84Z" fill="#F2F2F2"/>
<path d="M375.42 436.04C418.194 436.04 452.87 388.837 452.87 330.61C452.87 272.383 418.194 225.18 375.42 225.18C332.646 225.18 297.97 272.383 297.97 330.61C297.97 388.837 332.646 436.04 375.42 436.04Z" fill="#F2F2F2" stroke="black" stroke-width="2" stroke-miterlimit="10"/>
<path d="M402.55 403.17C430.689 403.17 453.5 371.664 453.5 332.8C453.5 293.936 430.689 262.43 402.55 262.43C374.411 262.43 351.6 293.936 351.6 332.8C351.6 371.664 374.411 403.17 402.55 403.17Z" fill="black"/>
<path d="M358.98 349.63C363.11 349.32 370.34 348.21 377.71 343.61C382.14 340.84 389.4 336.31 389.75 330.23C390.15 323.25 381.35 315.19 367.68 312.17L356.31 310.83L352.97 347.61L358.99 349.62L358.98 349.63Z" fill="#F2F2F2"/>
<path d="M356.3 310.84L354.16 310.59L353.05 316.47L351.88 324.19L351.71 331.91L351.94 340.79L352.73 347.62H354.19L356.3 310.84Z" fill="#F2F2F2"/>
<path d="M214.56 495.15C217.06 497.64 220.61 500.96 225.12 504.54C231.44 509.55 240.16 516.47 251.81 520.67C258.16 522.96 271.87 527.91 288.19 523.31C304.29 518.78 313.58 507.59 316.94 503.07" stroke="black" stroke-width="2" stroke-miterlimit="10"/>
<path d="M321.04 481.36C319.63 482.08 317.24 483.59 315.76 486.35C312.42 492.57 315.01 502.79 322.21 505.42C328.56 507.74 334.74 502.8 335.12 502.49" stroke="black" stroke-width="2" stroke-miterlimit="10"/>
<path d="M195.49 495.15C196.64 495.92 198.54 496.98 201.06 497.5C201.96 497.68 207.54 498.74 212.5 495.45C217.09 492.41 219.55 486.72 218.95 480.78" stroke="black" stroke-width="2" stroke-miterlimit="10"/>
<path d="M414.73 535.77C416.62 538.2 419.42 541.84 422.81 546.26C441.91 571.21 451.46 583.69 457.89 593.77C471.21 614.68 477.16 633.51 480.26 643.37C480.26 643.37 492.42 675.33 490.6 705.55C490.53 706.7 490.3 709.85 488.24 712.83C483.24 720.04 469.97 722.64 460.51 717.28C454.02 713.6 451.35 707.3 450.39 704.57L449.4 702.34C445.47 677.71 440.27 657.45 435.81 642.47C426.71 611.88 420.04 601.06 414.18 593.5C405.96 582.9 397.13 575.85 390.82 571.5" fill="#D52A22"/>
<path d="M414.73 535.77C416.62 538.2 419.42 541.84 422.81 546.26C441.91 571.21 451.46 583.69 457.89 593.77C471.21 614.68 477.16 633.51 480.26 643.37C480.26 643.37 492.42 675.33 490.6 705.55C490.53 706.7 490.3 709.85 488.24 712.83C483.24 720.04 469.97 722.64 460.51 717.28C454.02 713.6 451.35 707.3 450.39 704.57L449.4 702.34C445.47 677.71 440.27 657.45 435.81 642.47C426.71 611.88 420.04 601.06 414.18 593.5C405.96 582.9 397.13 575.85 390.82 571.5" stroke="black" stroke-width="0.75" stroke-miterlimit="10"/>
<path d="M555.78 879C561.71 876.75 571.57 872.21 575.01 875.87C577.82 878.86 575.14 886.05 573.17 889.57C569.55 896.03 560.02 904.9 520.24 906.07C465.34 907.68 423.25 892.54 420.61 881.53C419.84 878.34 420.75 875.6 420.75 875.6C423.06 868.58 433.01 866.42 433.83 866.26C443.81 864.23 452.46 870.51 458.19 873.88C485.17 889.74 529.17 889.12 555.79 879.02L555.78 879Z" fill="#EFEDEE"/>
<path d="M425.23 873.69C464.83 889.56 497.13 891.79 517.55 891.34C528.34 891.1 572.09 890.15 575.66 875.3C577.57 867.34 567.22 858.37 566.02 857.35C562.68 854.52 557.47 851.41 533.11 848.94C525.94 848.21 517.19 847.55 507.16 847.28L508.83 790.79L427.02 794.53L425.24 873.68L425.23 873.69Z" fill="#BBD2D8"/>
<path d="M494.28 694.44C499.72 694.89 506.46 695.79 512.35 700.58C518.4 705.51 521.74 713.09 523.5 727.53C526.38 751.22 529.8 779.35 511.43 796.21C504.17 802.88 495.57 804.91 478.39 808.97C461.44 812.97 440.08 818.02 426.86 806.58C422.3 802.64 420.58 798.35 417.5 790.72C415.88 786.69 410.57 772.49 413.42 742.17C415.05 724.8 415.87 716.11 418.98 711.29C433.17 689.35 469.72 692.4 494.29 694.45L494.28 694.44Z" fill="#FFFEFD" stroke="black" stroke-width="0.5" stroke-miterlimit="10"/>
<path d="M251.17 576.27C251.91 578.53 253.01 581.9 254.33 585.99C261.73 609.07 265.43 620.62 267.23 629.54C270.98 648.05 268.81 662.82 267.67 670.55C267.67 670.55 265.89 696.27 252.03 716.43C251.5 717.2 250.02 719.29 246.93 720.69C239.45 724.07 226.25 721.71 219.77 715.07C215.32 710.51 215.42 705.36 215.65 703.19V701.35C221.99 683.23 225.42 667.71 227.39 656.04C231.42 632.21 229.68 622.71 227.37 615.69C224.13 605.85 218.9 598.25 214.89 593.3" fill="#D52A22"/>
<path d="M301.07 892.22C307.31 891.05 317.81 888.32 320.55 892.53C322.79 895.96 318.88 902.57 316.32 905.69C311.62 911.41 300.68 918.46 261.31 912.59C206.99 904.49 168.23 882.17 167.57 870.86C167.38 867.58 168.75 865.05 168.75 865.05C172.26 858.55 182.44 858.18 183.27 858.16C193.45 857.92 200.86 865.63 205.9 869.95C229.66 890.32 273.08 897.47 301.06 892.23L301.07 892.22Z" fill="#EFEDEE"/>
<path d="M173.5 863.97C209.68 886.58 241.08 894.47 261.26 897.63C271.92 899.3 315.15 906.07 321.29 892.09C324.58 884.59 315.97 873.94 314.97 872.72C312.18 869.34 307.6 865.37 284.05 858.64C277.12 856.66 268.62 854.47 258.8 852.43L270.41 797.12L189.23 786.38L173.51 863.97H173.5Z" fill="#BBD2D8"/>
<path d="M273.08 699.7C278.36 701.11 284.84 703.18 289.78 708.93C294.87 714.85 296.82 722.9 296 737.43C294.66 761.26 293.06 789.55 272.01 802.9C263.68 808.18 254.87 808.66 237.23 809.63C219.84 810.58 197.93 811.78 186.93 798.18C183.14 793.5 182.2 788.97 180.51 780.91C179.62 776.66 176.9 761.75 185.05 732.4C189.72 715.59 192.06 707.18 195.97 702.99C213.81 683.9 249.25 693.34 273.07 699.7H273.08Z" fill="#FFFEFD" stroke="black" stroke-width="0.5" stroke-miterlimit="10"/>
<path d="M219.8 600.05L198.53 570.04L239.18 549.15L252.47 580.67L219.8 600.05Z" fill="black"/>
<path d="M99.15 482.43C98.14 490.09 97.12 506.1 104.79 523.56C107.66 530.09 115.39 545.14 131.76 556C155.87 571.99 178.71 565.63 183 578.3C185.31 585.13 179.29 588.77 181.03 602.14C182.62 614.33 188.56 618.51 186.79 621.25C182.51 627.9 138.89 616.77 109.18 589.99C69.37 554.12 65.37 499.95 65.04 478.19" fill="#D52A22"/>
<path d="M99.15 482.43C98.14 490.09 97.12 506.1 104.79 523.56C107.66 530.09 115.39 545.14 131.76 556C155.87 571.99 178.71 565.63 183 578.3C185.31 585.13 179.29 588.77 181.03 602.14C182.62 614.33 188.56 618.51 186.79 621.25C182.51 627.9 138.89 616.77 109.18 589.99C69.37 554.12 65.37 499.95 65.04 478.19" stroke="black" stroke-width="0.75" stroke-miterlimit="10"/>
<path d="M207.84 560.86C212.97 564.56 213.67 571.55 213.41 585.54C212.8 618.52 212.5 635 204.48 637.85C197.19 640.44 187.61 631.46 183.65 626.59C171.45 611.55 176.97 591.27 180.44 578.53C184.22 564.65 189.04 561.49 191.27 560.35C196.17 557.82 203.17 557.49 207.84 560.86Z" fill="#FFFEFD" stroke="black" stroke-miterlimit="10"/>
<path d="M211.24 558.5C214.9 554.06 217.59 556.55 229.26 549.27C236.44 544.79 242.53 540.98 247.03 533.91C252.99 524.54 250.47 518.37 257.45 512.8C258.62 511.87 262.74 508.58 268.06 508.96C274.91 509.45 281.77 515.89 282.88 522.83C283.75 528.23 280.7 531.15 272.97 552.02C271.8 555.18 271.12 557.13 272.1 558.7C275.27 563.79 292.19 558.81 297.73 557.17C312.12 552.93 315.59 548.66 325.21 548.83C329.45 548.91 334.82 548.7 339.4 552.25C343.98 555.8 347.22 562.52 346.28 567.61C342.99 585.35 287.93 588.05 288.35 591.65C288.52 593.13 297.83 592.61 311.32 593.87C331.49 595.74 351.02 597.56 357.61 609.59C360.1 614.15 360.93 620.51 358.36 625.19C353.82 633.45 340.29 633.66 332.69 633.68C305.77 633.76 286.25 620.52 285.55 621.86C284.96 623 298.54 633.56 317.45 644.32C327.97 650.31 333.7 652.69 335.33 658.76C337.14 665.47 333.52 675.1 326.86 678.21C316.72 682.94 300.56 672.03 281.29 659.01C274.08 654.14 268.39 649.64 259.21 648.72C251.52 647.95 249.6 650.52 241.79 650.71C230.21 650.99 214.67 645.82 209.29 635.49C204.51 626.31 212.3 621.77 213.24 601.95C214.37 578.08 203.89 567.44 211.26 558.49L211.24 558.5Z" fill="white" stroke="black" stroke-miterlimit="10"/>
<path d="M244.169 583.503C248.961 580.848 251.914 577.012 250.763 574.935C249.613 572.858 244.795 573.325 240.002 575.98C235.209 578.634 232.257 582.47 233.408 584.548C234.558 586.625 239.376 586.157 244.169 583.503Z" fill="black"/>
<path d="M252.788 606.439C258.211 605.662 262.334 603.127 261.998 600.776C261.661 598.425 256.992 597.149 251.568 597.926C246.145 598.702 242.021 601.238 242.358 603.589C242.695 605.939 247.364 607.216 252.788 606.439Z" fill="black"/>
<path d="M254.581 629.467C255.236 627.184 251.498 624.109 246.232 622.598C240.966 621.087 236.166 621.712 235.511 623.995C234.856 626.278 238.594 629.353 243.86 630.864C249.126 632.375 253.926 631.75 254.581 629.467Z" fill="black"/>
<path d="M449.15 493.85C465.1 530.24 481.97 543.18 494.98 547.98C499.16 549.52 510.55 553.03 511.4 559.72C512.16 565.74 503.67 568.53 501.03 579.31C498.73 588.73 503.48 593.65 500.96 595.88C495.74 600.51 470.96 583.05 451.98 564.6C437.28 550.31 427.4 536.74 421.54 527.89" fill="#D52A22"/>
<path d="M449.15 493.85C465.1 530.24 481.97 543.18 494.98 547.98C499.16 549.52 510.55 553.03 511.4 559.72C512.16 565.74 503.67 568.53 501.03 579.31C498.73 588.73 503.48 593.65 500.96 595.88C495.74 600.51 470.96 583.05 451.98 564.6C437.28 550.31 427.4 536.74 421.54 527.89" stroke="black" stroke-miterlimit="10"/>
<path d="M544.03 544.25C538.03 540.84 529.73 543.79 528.46 544.25C521.64 546.68 517.47 551.84 513.78 557.69C505.43 570.93 489.34 596.43 500.75 614.32C504.59 620.34 512.18 626.5 520.34 626.03C532.81 625.3 540.15 609.46 543.98 601.19C553.36 580.93 556.19 551.16 544.04 544.26L544.03 544.25Z" fill="#FEFEFE" stroke="black" stroke-miterlimit="10"/>
<path d="M547.22 548.53C558.72 535.54 572.61 546.52 589.63 531.59C601.85 520.87 602.31 508.54 612.91 507.1C619.02 506.27 625.88 509.41 629.19 514.55C633.38 521.05 631.27 529.79 628.39 534.9C624.26 542.24 618.37 542.41 613.83 551.95C611.19 557.49 612.08 559.74 612.32 560.29C613.81 563.61 618.65 564.77 626.58 565.32C643.91 566.53 648.05 562.9 660.43 564.05C666.59 564.62 680.47 565.92 683.64 573.98C686.01 580 681.67 587.96 677.02 592.46C666.92 602.25 650.06 600.92 631.89 599.48C624.2 598.87 616.63 597.68 616.59 597.95C616.53 598.36 634.27 599.78 654.13 608.01C665.78 612.83 680.05 618.94 681.04 629.27C681.65 635.61 676.97 640.59 676.44 641.15C675.1 642.54 669 648.32 651.04 645.58C624.77 641.57 607.75 624.62 606.6 626.08C605.77 627.12 614.2 636.06 624.12 644.82C638.41 657.44 644.29 659.54 645.26 666.26C646.28 673.36 641.41 682.63 634.53 684.82C629.26 686.5 624.59 683.46 594.59 660.8C577.47 647.87 575.8 646.45 570.86 644.63C560.03 640.64 554.04 642.3 544.11 636.11C540.01 633.55 533.43 629.45 531.03 622.27C528.31 614.12 532.77 607.43 536.74 597.47C548.07 569.03 536.9 560.18 547.22 548.53Z" fill="#FEFEFE" stroke="black" stroke-miterlimit="10"/>
</g>
<defs>
<clipPath id="clip0_275_148">
<rect width="684.82" height="914.79" fill="white"/>
</clipPath>
</defs>
</svg>
