<svg width="848" height="918" viewBox="0 0 848 918" fill="none" xmlns="http://www.w3.org/2000/svg">
<g clip-path="url(#clip0_299_111)">
<path d="M301.76 160.82C307.31 161.64 330.54 164.74 362.78 158.2C384.24 153.84 383.69 150.48 403.46 145.73C414.15 143.16 442.38 136.66 474.98 142.45C483.78 144.01 519.22 151.15 547.81 177.22C592.17 217.68 592.74 278.86 593.08 315.66C593.82 395.44 559.07 451.88 539.93 482.97C520.1 515.18 496.3 552.73 452.67 568.92C434.21 575.77 412.92 578.53 406.09 579.42C375.91 583.33 361.46 579.81 329.32 578.76C266 576.69 267.16 588.57 236.15 582.04C197 573.79 171.08 549.79 153.48 533.49C119.57 502.08 104.15 468.81 92.46 443.6C73.59 402.9 67.19 368.41 64.9 353.71C59.59 319.64 54.86 289.3 65.56 252.67C69.35 239.68 86.41 181.25 141.01 154.91C146.22 152.4 181.74 135.79 221.06 142.44C230.7 144.07 250.64 148.81 273.55 154.25C296.69 159.75 296.13 159.98 301.76 160.81V160.82Z" fill="#C11612"/>
<path d="M238.79 169.8C243.34 170.45 249.31 171.47 256.55 173.86C263.39 176.12 274.61 179.83 283.95 188.57C294.11 198.08 291.03 203.25 299.17 210.89C311.29 222.27 329.43 221.42 337.73 221.04C357.69 220.11 360.26 212.16 388.97 204.81C407.59 200.04 417.74 197.44 430.06 200.24C456.55 206.27 470.81 232.23 474.7 239.3C488.38 264.2 486.54 287.84 484.34 315.91C482.93 333.9 479.84 368.5 457.96 405.2C448.41 421.22 438.1 438.52 416.87 451.87C386.86 470.75 354.87 469.27 343.82 468.61C315.01 466.9 314.75 457.52 290.55 457.96C261.45 458.49 253.43 472.21 220.54 479.27C202.67 483.1 179.17 487.73 156.62 479.27C122.41 466.44 108.11 429.79 95.74 398.1C86.81 375.23 74.03 331.48 83.56 278.88C87.75 255.78 92.14 231.53 111.97 208.36C114.21 205.74 140.86 175.46 183.5 168.28C203.99 164.83 223.11 167.56 238.8 169.8H238.79Z" fill="#D52A22"/>
<path d="M116.08 345.35C122.54 347.85 130.96 347.59 137.26 343.58C144.3 339.11 146.37 331.48 148.44 325.34C149.49 322.25 162.03 286.18 184.34 271.2C194.26 264.54 203.96 263.49 214.35 262.37C239.85 259.62 253.38 268.19 279.67 275.32C299.44 280.68 349.23 294.18 385 271.79C394.28 265.98 406.63 255.25 404.42 248.25C401.49 238.97 373.93 239.28 361.46 239.42C341.62 239.64 340.08 242.86 326.74 242.95C305.19 243.1 289.21 234.83 260.24 219.41C225.94 201.15 230.63 197.47 214.34 192.34C210.09 191 167.77 178.39 135.49 202.93C120.9 214.02 115.19 227.51 106.66 247.65C100.02 263.33 89.4 289.33 97.24 317.68C99.43 325.61 103.55 340.48 116.07 345.34L116.08 345.35Z" fill="#F84F40"/>
<path d="M416.81 251.73C414.99 249.41 415.44 246.36 415.56 245.71C416.75 238.87 426.35 236.54 427.85 236.18C430.93 235.44 435.25 234.39 438.13 236.93C441.14 239.59 441.1 244.87 439.38 248.21C435.49 255.78 421.06 257.14 416.81 251.72V251.73Z" fill="#F84F40"/>
<path d="M349.52 175.31C349.81 168.53 349.94 159.88 349.52 149.86C348.77 132.07 346.64 118.87 346.18 116.06C345.5 111.92 342.82 96.3 336.58 76.84C332.53 64.2 330.5 57.88 327.4 50.97C323.32 41.88 320.48 37.75 320.31 30.94C320.15 24.45 325.36 15.2 326.99 11.75C329.11 7.23003 330.25 5.63003 329.49 3.82003C327.25 -1.56997 312.06 0.220034 309.88 0.480034C304.54 1.11003 295.89 2.98003 286.1 9.24003L281.09 15.08C279.52 17.3 277.79 20.56 278.17 24.26C278.8 30.41 284.89 34.3 287.77 36.36C295.92 42.2 300.71 50.54 310.3 67.24C315.23 75.82 317.48 86.31 321.98 107.29C327.5 133.01 330.26 145.87 327.82 159.44C325.16 174.22 323.84 181.61 320.31 186.98C319.68 187.93 318.04 190.3 317.81 193.66C317.49 198.28 319.98 203 323.23 205.76C330.99 212.33 343.16 207.77 347.43 206.18C353.05 204.08 360.09 201.44 360.78 195.75C361.34 191.09 357.46 185.86 351.18 182.82L349.51 175.31H349.52Z" fill="#663B0D"/>
<path d="M214.8 436.04C257.574 436.04 292.25 388.837 292.25 330.61C292.25 272.383 257.574 225.18 214.8 225.18C172.026 225.18 137.35 272.383 137.35 330.61C137.35 388.837 172.026 436.04 214.8 436.04Z" fill="#F2F2F2" stroke="black" stroke-width="2" stroke-miterlimit="10"/>
<path d="M241.92 403.17C270.059 403.17 292.87 371.664 292.87 332.8C292.87 293.936 270.059 262.43 241.92 262.43C213.781 262.43 190.97 293.936 190.97 332.8C190.97 371.664 213.781 403.17 241.92 403.17Z" fill="black"/>
<path d="M198.35 349.63C202.48 349.32 209.71 348.21 217.08 343.61C221.51 340.84 228.77 336.31 229.12 330.23C229.52 323.25 220.72 315.19 207.05 312.17L195.68 310.83L192.34 347.61L198.36 349.62L198.35 349.63Z" fill="#F2F2F2"/>
<path d="M195.68 310.84L193.53 310.59L192.42 316.47L191.25 324.19L191.09 331.91L191.31 340.79L192.1 347.62H193.56L195.68 310.84Z" fill="#F2F2F2"/>
<path d="M434.56 436.04C477.334 436.04 512.01 388.837 512.01 330.61C512.01 272.383 477.334 225.18 434.56 225.18C391.786 225.18 357.11 272.383 357.11 330.61C357.11 388.837 391.786 436.04 434.56 436.04Z" fill="#F2F2F2" stroke="black" stroke-width="2" stroke-miterlimit="10"/>
<path d="M461.69 403.17C489.829 403.17 512.64 371.664 512.64 332.8C512.64 293.936 489.829 262.43 461.69 262.43C433.551 262.43 410.74 293.936 410.74 332.8C410.74 371.664 433.551 403.17 461.69 403.17Z" fill="black"/>
<path d="M418.12 349.63C422.25 349.32 429.48 348.21 436.85 343.61C441.28 340.84 448.54 336.31 448.89 330.23C449.29 323.25 440.49 315.19 426.82 312.17L415.45 310.83L412.11 347.61L418.13 349.62L418.12 349.63Z" fill="#F2F2F2"/>
<path d="M415.44 310.84L413.3 310.59L412.18 316.47L411.02 324.19L410.85 331.91L411.07 340.79L411.87 347.62H413.33L415.44 310.84Z" fill="#F2F2F2"/>
<path d="M273.69 495.15C276.19 497.64 279.74 500.96 284.25 504.54C290.57 509.55 299.29 516.47 310.94 520.67C317.29 522.96 331 527.91 347.32 523.31C363.42 518.78 372.71 507.59 376.07 503.07" stroke="black" stroke-width="2" stroke-miterlimit="10"/>
<path d="M380.18 481.36C378.77 482.08 376.38 483.59 374.9 486.35C371.56 492.57 374.15 502.79 381.35 505.42C387.7 507.74 393.88 502.8 394.26 502.49" stroke="black" stroke-width="2" stroke-miterlimit="10"/>
<path d="M254.63 495.15C255.78 495.92 257.68 496.98 260.2 497.5C261.1 497.68 266.68 498.74 271.64 495.45C276.23 492.41 278.69 486.72 278.09 480.78" stroke="black" stroke-width="2" stroke-miterlimit="10"/>
<path d="M438.09 525.03C439.67 527.67 442.03 531.61 444.87 536.4C460.89 563.44 468.89 576.95 474.08 587.72C484.84 610.06 488.51 629.46 490.42 639.62C490.42 639.62 498.72 672.8 493.34 702.59C493.13 703.72 492.54 706.83 490.13 709.54C484.32 716.1 470.83 717.12 462.07 710.68C456.06 706.25 454.15 699.68 453.53 696.86L452.81 694.53C451.82 669.61 449.05 648.88 446.4 633.47C440.99 602.02 435.64 590.49 430.71 582.28C423.8 570.79 415.87 562.74 410.12 557.67" fill="#D52A22"/>
<path d="M438.09 525.03C439.67 527.67 442.03 531.61 444.87 536.4C460.89 563.44 468.89 576.95 474.08 587.72C484.84 610.06 488.51 629.46 490.42 639.62C490.42 639.62 498.72 672.8 493.34 702.59C493.13 703.72 492.54 706.83 490.13 709.54C484.32 716.1 470.83 717.12 462.07 710.68C456.06 706.25 454.15 699.68 453.53 696.86L452.81 694.53C451.82 669.61 449.05 648.88 446.4 633.47C440.99 602.02 435.64 590.49 430.71 582.28C423.8 570.79 415.87 562.74 410.12 557.67" stroke="black" stroke-width="0.75" stroke-miterlimit="10"/>
<path d="M537.56 882.54C543.72 881.01 554.05 877.67 557.02 881.7C559.45 885 555.94 891.82 553.57 895.08C549.21 901.06 538.7 908.75 499.06 905.2C444.36 900.3 404.35 880.3 403.03 869.04C402.65 865.78 403.87 863.17 403.87 863.17C407 856.48 417.13 855.51 417.96 855.44C428.11 854.6 435.96 861.86 441.25 865.88C466.16 884.82 509.93 889.41 537.56 882.53V882.54Z" fill="#EFEDEE"/>
<path d="M408.55 861.82C445.99 882.26 477.81 888.3 498.13 890.27C508.87 891.31 552.43 895.54 557.73 881.21C560.57 873.53 551.35 863.4 550.28 862.25C547.3 859.04 542.49 855.34 518.59 850.01C511.56 848.44 502.95 846.75 493.02 845.29L501.36 789.39L419.69 783.43L408.56 861.81L408.55 861.82Z" fill="#BBD2D8"/>
<path d="M498.32 692C503.67 693.09 510.26 694.78 515.53 700.24C520.96 705.85 523.38 713.78 523.41 728.32C523.47 752.19 523.53 780.52 503.3 795.09C495.3 800.85 486.52 801.85 468.98 803.85C451.68 805.82 429.87 808.3 418.09 795.38C414.03 790.93 412.82 786.47 410.67 778.52C409.53 774.33 405.94 759.6 412.36 729.82C416.04 712.76 417.87 704.23 421.54 699.82C438.22 679.71 474.16 687.06 498.31 692.01L498.32 692Z" fill="#FFFEFD" stroke="black" stroke-width="0.5" stroke-miterlimit="10"/>
<path d="M293.99 580.36C294.02 582.74 294.05 586.28 294.07 590.58C294.16 614.82 294.21 626.94 293.24 635.99C291.23 654.76 284.71 668.19 281.28 675.22C281.28 675.22 271.83 699.21 252.53 714.24C251.79 714.81 249.75 716.36 246.38 716.76C238.23 717.73 226.36 711.49 222.18 703.21C219.31 697.52 220.96 692.64 221.83 690.64L222.38 688.89C233.89 673.53 241.84 659.76 247.25 649.23C258.28 627.73 259.49 618.14 259.4 610.75C259.28 600.39 256.58 591.57 254.25 585.64" fill="#D52A22"/>
<path d="M246.27 896.64C252.57 897.41 263.41 897.98 264.75 902.81C265.85 906.76 260.13 911.88 256.75 914.08C250.54 918.11 237.98 921.54 202.22 904.07C152.87 879.96 122.65 846.99 125.43 836.01C126.24 832.83 128.31 830.82 128.31 830.82C133.62 825.68 143.43 828.4 144.24 828.63C154.02 831.47 158.76 841.06 162.26 846.7C178.77 873.29 218.01 893.2 246.27 896.64Z" fill="#EFEDEE"/>
<path d="M133.16 831.22C160.84 863.69 188.4 880.68 206.68 889.78C216.34 894.59 255.52 914.09 265.58 902.6C270.98 896.44 265.98 883.69 265.39 882.23C263.75 878.17 260.58 873 240.16 859.48C234.15 855.5 226.71 850.85 217.96 845.94L245.71 796.7L171.55 761.97L133.16 831.21V831.22Z" fill="#BBD2D8"/>
<path d="M277.65 704.65C282.26 707.58 287.81 711.51 290.79 718.49C293.86 725.67 293.29 733.94 288.13 747.54C279.66 769.85 269.61 796.34 245.51 802.72C235.98 805.24 227.43 803.04 210.32 798.65C193.46 794.31 172.2 788.84 165.81 772.56C163.61 766.95 164.07 762.35 164.9 754.16C165.34 749.84 167.24 734.8 183.87 709.28C193.39 694.66 198.16 687.35 203.16 684.53C225.92 671.71 256.87 691.4 277.66 704.65H277.65Z" fill="#FFFEFD" stroke="black" stroke-width="0.5" stroke-miterlimit="10"/>
<path d="M252.21 574.97L292.89 569.2L294.14 593.3L259.75 605.36L250.71 575.98L252.21 574.97Z" fill="black"/>
<path d="M116.64 431.61C109.06 433.12 93.58 437.3 79.51 450.18C74.25 454.99 62.48 467.16 57.46 486.15C50.07 514.12 63.44 533.71 52.82 541.85C47.1 546.24 41.72 541.7 29.61 547.65C18.58 553.07 16.53 560.04 13.37 559.25C5.7 557.34 2.21 512.45 18.01 475.71C39.17 426.48 89.18 405.27 109.68 397.97" fill="#D52A22"/>
<path d="M116.64 431.61C109.06 433.12 93.58 437.3 79.51 450.18C74.25 454.99 62.48 467.16 57.46 486.15C50.07 514.12 63.44 533.71 52.82 541.85C47.1 546.24 41.72 541.7 29.61 547.65C18.58 553.07 16.53 560.04 13.37 559.25C5.7 557.34 2.21 512.45 18.01 475.71C39.17 426.48 89.18 405.27 109.68 397.97" stroke="black" stroke-width="0.75" stroke-miterlimit="10"/>
<path d="M77.33 559.75C75.47 565.8 69.08 568.71 55.75 572.96C24.33 582.99 8.62001 588 3.35001 581.33C-1.44999 575.26 3.97001 563.3 7.31001 557.99C17.63 541.6 38.61 540.31 51.79 539.49C66.14 538.61 70.69 542.16 72.49 543.89C76.46 547.72 79.03 554.23 77.33 559.74V559.75Z" fill="#FFFEFD" stroke="black" stroke-miterlimit="10"/>
<path d="M80.66 562.21C86.04 564.25 84.54 567.6 95.19 576.3C101.75 581.66 107.31 586.2 115.45 588.19C126.24 590.82 131.28 586.45 138.79 591.27C140.05 592.08 144.49 594.92 145.84 600.08C147.58 606.72 143.68 615.29 137.47 618.58C132.64 621.14 128.89 619.19 106.64 618.58C103.27 618.49 101.2 618.47 100.03 619.9C96.23 624.54 106.39 638.95 109.72 643.68C118.36 655.95 123.53 657.85 126.45 667.02C127.74 671.06 129.66 676.08 127.77 681.55C125.88 687.03 120.56 692.26 115.44 693C97.59 695.59 77.32 644.33 74.05 645.88C72.7 646.52 76.18 655.16 79.33 668.34C84.04 688.04 88.6 707.11 79.33 717.22C75.82 721.05 70.06 723.87 64.8 722.94C55.52 721.3 50.97 708.55 48.51 701.36C39.78 675.89 46.04 653.15 44.55 652.92C43.28 652.72 37.65 668.98 33.54 690.35C31.25 702.23 30.84 708.42 25.61 711.93C19.84 715.8 9.55 715.48 4.47 710.17C-3.27 702.09 1.87 683.28 7.99 660.85C10.28 652.46 12.72 645.62 10.63 636.63C8.88 629.1 5.83 628.11 3.14 620.78C-0.849997 609.9 -0.949997 593.53 7.1 585.11C14.26 577.63 21.06 583.55 40.13 578.06C63.1 571.46 69.8 558.11 80.64 562.21H80.66Z" fill="white" stroke="black" stroke-miterlimit="10"/>
<path d="M77.8211 604.894C79.4182 603.137 77.4258 598.725 73.3711 595.041C69.3163 591.356 64.7346 589.794 63.1376 591.552C61.5405 593.31 63.5329 597.721 67.5876 601.406C71.6424 605.09 76.2241 606.652 77.8211 604.894Z" fill="black"/>
<path d="M56.9762 623.91C59.0939 622.835 58.8005 618.003 56.3209 613.118C53.8413 608.232 50.1145 605.143 47.9968 606.218C45.8792 607.293 46.1725 612.125 48.6521 617.01C51.1317 621.896 54.8585 624.985 56.9762 623.91Z" fill="black"/>
<path d="M27.3187 626.079C29.6908 625.965 31.4015 621.437 31.1396 615.965C30.8777 610.492 28.7424 606.148 26.3703 606.261C23.9982 606.375 22.2875 610.903 22.5494 616.376C22.8113 621.848 24.9466 626.192 27.3187 626.079Z" fill="black"/>
<path d="M579.58 319.78C617.1 332.86 638.06 329.3 650.43 323.03C654.4 321.02 664.72 315.06 670.21 318.99C675.14 322.53 671.4 330.65 677.51 339.92C682.84 348.01 689.69 347.89 689.61 351.25C689.45 358.23 659.79 364.5 633.36 365.85C612.89 366.9 596.21 364.9 585.74 363.17" fill="#D52A22"/>
<path d="M579.58 319.78C617.1 332.86 638.06 329.3 650.43 323.03C654.4 321.02 664.72 315.06 670.21 318.99C675.14 322.53 671.4 330.65 677.51 339.92C682.84 348.01 689.69 347.89 689.61 351.25C689.45 358.23 659.79 364.5 633.36 365.85C612.89 366.9 596.21 364.9 585.74 363.17" stroke="black" stroke-miterlimit="10"/>
<path d="M681.07 284.55C674.48 286.63 671 294.71 670.47 295.96C667.61 302.61 668.55 309.18 670.32 315.86C674.34 330.99 682.08 360.13 702.95 363.95C709.97 365.24 719.65 363.87 724.86 357.56C732.82 347.93 726.2 331.77 722.74 323.34C714.28 302.68 694.39 280.35 681.07 284.55Z" fill="#FEFEFE" stroke="black" stroke-miterlimit="10"/>
<path d="M686.38 285.13C684.69 267.86 702.18 265.15 702.83 242.52C703.3 226.27 694.56 217.54 700.72 208.79C704.27 203.75 711.24 200.86 717.26 201.93C724.87 203.28 729.84 210.78 731.63 216.37C734.19 224.39 730.32 228.82 734.22 238.64C736.49 244.35 738.74 245.22 739.3 245.42C742.75 246.59 746.89 243.83 752.69 238.4C765.37 226.53 765.53 221.02 774.79 212.74C779.4 208.61 789.8 199.32 797.86 202.49C803.89 204.85 806.76 213.44 806.9 219.92C807.2 233.98 794.75 245.43 781.33 257.77C775.65 262.99 769.63 267.73 769.79 267.94C770.04 268.26 783.16 256.24 802.71 247.28C814.17 242.03 828.36 235.73 836.6 242.03C841.66 245.9 842.13 252.72 842.17 253.49C842.27 255.42 842.36 263.82 828.13 275.12C807.32 291.64 783.31 292.57 783.59 294.41C783.79 295.72 796.07 295.63 809.25 294.32C828.23 292.44 833.76 289.56 839.35 293.43C845.25 297.51 848.73 307.39 845.65 313.92C843.29 318.92 837.88 320.28 800.87 326.84C779.75 330.58 777.57 330.84 772.87 333.22C762.58 338.43 759.72 343.96 748.42 347.02C743.76 348.28 736.27 350.31 729.38 347.19C721.56 343.64 719.69 335.81 715.09 326.13C701.96 298.47 687.88 300.64 686.36 285.15L686.38 285.13Z" fill="#FEFEFE" stroke="black" stroke-miterlimit="10"/>
<path d="M785.58 307.27C785.04 301.46 783.44 292.25 778.25 282.25C771.51 269.27 762.16 261.64 757.01 258.01" fill="#FEFEFE"/>
<path d="M785.58 307.27C785.04 301.46 783.44 292.25 778.25 282.25C771.51 269.27 762.16 261.64 757.01 258.01" stroke="black" stroke-miterlimit="10"/>
</g>
<defs>
<clipPath id="clip0_299_111">
<rect width="847.31" height="917.33" fill="white"/>
</clipPath>
</defs>
</svg>
